<mxfile host="app.diagrams.net" agent="Mozilla/5.0 (Windows NT 10.0; Win64; x64) AppleWebKit/537.36 (KHTML, like Gecko) Chrome/141.0.0.0 Safari/537.36" version="28.2.7">
  <diagram name="PÃ¡gina-1" id="VpgmxGetU6f4g4Ij1GQ-">
    <mxGraphModel dx="1901" dy="1071" grid="1" gridSize="10" guides="1" tooltips="1" connect="1" arrows="1" fold="1" page="1" pageScale="1" pageWidth="827" pageHeight="1169" math="0" shadow="0">
      <root>
        <mxCell id="0" />
        <mxCell id="1" parent="0" />
        <mxCell id="zSb6vsl79qmQ6XuV5YI8-1" value="&lt;br&gt;&lt;div&gt;&lt;br&gt;&lt;/div&gt;&lt;div&gt;&lt;br&gt;&lt;/div&gt;&lt;div&gt;&lt;br&gt;&lt;/div&gt;&lt;div&gt;&lt;br&gt;&lt;/div&gt;&lt;div&gt;&lt;br&gt;&lt;/div&gt;&lt;div&gt;&lt;br&gt;&lt;/div&gt;&lt;div&gt;&lt;br&gt;&lt;/div&gt;&lt;div&gt;&lt;br&gt;&lt;/div&gt;&lt;div&gt;&lt;br&gt;&lt;/div&gt;&lt;div&gt;&lt;br&gt;&lt;/div&gt;&lt;div&gt;&lt;br&gt;&lt;/div&gt;&lt;div&gt;&lt;br&gt;&lt;/div&gt;&lt;div&gt;&lt;br&gt;&lt;/div&gt;&lt;div&gt;&lt;br&gt;&lt;/div&gt;&lt;div&gt;&lt;br&gt;&lt;/div&gt;&lt;div&gt;&lt;br&gt;&lt;/div&gt;&lt;div&gt;&lt;br&gt;&lt;/div&gt;&lt;div&gt;&lt;br&gt;&lt;/div&gt;&lt;div&gt;&lt;br&gt;&lt;/div&gt;&lt;div&gt;&lt;br&gt;&lt;/div&gt;&lt;div&gt;&lt;br&gt;&lt;/div&gt;" style="rounded=0;whiteSpace=wrap;html=1;" vertex="1" parent="1">
          <mxGeometry x="90" y="180" width="1320" height="520" as="geometry" />
        </mxCell>
        <mxCell id="zSb6vsl79qmQ6XuV5YI8-15" value="DatoDistancia" style="swimlane;fontStyle=1;align=center;verticalAlign=top;childLayout=stackLayout;horizontal=1;startSize=26;horizontalStack=0;resizeParent=1;resizeParentMax=0;resizeLast=0;collapsible=1;marginBottom=0;whiteSpace=wrap;html=1;" vertex="1" parent="1">
          <mxGeometry x="760" y="473" width="200" height="138" as="geometry" />
        </mxCell>
        <mxCell id="zSb6vsl79qmQ6XuV5YI8-16" value="+ distancia : int&lt;div&gt;+ texto : string&lt;/div&gt;&lt;div&gt;+ descripcion : strin&lt;/div&gt;" style="text;strokeColor=none;fillColor=none;align=left;verticalAlign=top;spacingLeft=4;spacingRight=4;overflow=hidden;rotatable=0;points=[[0,0.5],[1,0.5]];portConstraint=eastwest;whiteSpace=wrap;html=1;" vertex="1" parent="zSb6vsl79qmQ6XuV5YI8-15">
          <mxGeometry y="26" width="200" height="54" as="geometry" />
        </mxCell>
        <mxCell id="zSb6vsl79qmQ6XuV5YI8-17" value="" style="line;strokeWidth=1;fillColor=none;align=left;verticalAlign=middle;spacingTop=-1;spacingLeft=3;spacingRight=3;rotatable=0;labelPosition=right;points=[];portConstraint=eastwest;strokeColor=inherit;" vertex="1" parent="zSb6vsl79qmQ6XuV5YI8-15">
          <mxGeometry y="80" width="200" height="8" as="geometry" />
        </mxCell>
        <mxCell id="zSb6vsl79qmQ6XuV5YI8-18" value="+ ToString() : string" style="text;strokeColor=none;fillColor=none;align=left;verticalAlign=top;spacingLeft=4;spacingRight=4;overflow=hidden;rotatable=0;points=[[0,0.5],[1,0.5]];portConstraint=eastwest;whiteSpace=wrap;html=1;" vertex="1" parent="zSb6vsl79qmQ6XuV5YI8-15">
          <mxGeometry y="88" width="200" height="50" as="geometry" />
        </mxCell>
        <mxCell id="zSb6vsl79qmQ6XuV5YI8-85" style="edgeStyle=none;curved=1;rounded=0;orthogonalLoop=1;jettySize=auto;html=1;entryX=1;entryY=0.5;entryDx=0;entryDy=0;fontSize=12;startSize=8;endSize=8;" edge="1" parent="1" source="zSb6vsl79qmQ6XuV5YI8-24" target="zSb6vsl79qmQ6XuV5YI8-54">
          <mxGeometry relative="1" as="geometry" />
        </mxCell>
        <mxCell id="zSb6vsl79qmQ6XuV5YI8-24" value="Backedn" style="swimlane;fontStyle=1;align=center;verticalAlign=top;childLayout=stackLayout;horizontal=1;startSize=26;horizontalStack=0;resizeParent=1;resizeParentMax=0;resizeLast=0;collapsible=1;marginBottom=0;whiteSpace=wrap;html=1;" vertex="1" parent="1">
          <mxGeometry x="750" y="260" width="650" height="170" as="geometry" />
        </mxCell>
        <mxCell id="zSb6vsl79qmQ6XuV5YI8-25" value="&lt;div&gt;- arbol : ArbolGeneral&amp;lt;DatoDistancia&amp;gt; {static}&lt;/div&gt;" style="text;strokeColor=none;fillColor=none;align=left;verticalAlign=top;spacingLeft=4;spacingRight=4;overflow=hidden;rotatable=0;points=[[0,0.5],[1,0.5]];portConstraint=eastwest;whiteSpace=wrap;html=1;" vertex="1" parent="zSb6vsl79qmQ6XuV5YI8-24">
          <mxGeometry y="26" width="650" height="54" as="geometry" />
        </mxCell>
        <mxCell id="zSb6vsl79qmQ6XuV5YI8-26" value="" style="line;strokeWidth=1;fillColor=none;align=left;verticalAlign=middle;spacingTop=-1;spacingLeft=3;spacingRight=3;rotatable=0;labelPosition=right;points=[];portConstraint=eastwest;strokeColor=inherit;" vertex="1" parent="zSb6vsl79qmQ6XuV5YI8-24">
          <mxGeometry y="80" width="650" height="8" as="geometry" />
        </mxCell>
        <mxCell id="zSb6vsl79qmQ6XuV5YI8-27" value="+ static aProfundidad() : string&lt;div&gt;+ static caminoAPrediccion() : string&lt;/div&gt;&lt;div&gt;+ static todasLasPredicciones() : string&lt;/div&gt;&lt;div&gt;+ static buscar(elementoABuscar: string, umbral : int, collected : List &amp;lt;DatoDistancia&amp;gt; ) : void&lt;/div&gt;" style="text;strokeColor=none;fillColor=none;align=left;verticalAlign=top;spacingLeft=4;spacingRight=4;overflow=hidden;rotatable=0;points=[[0,0.5],[1,0.5]];portConstraint=eastwest;whiteSpace=wrap;html=1;" vertex="1" parent="zSb6vsl79qmQ6XuV5YI8-24">
          <mxGeometry y="88" width="650" height="82" as="geometry" />
        </mxCell>
        <mxCell id="zSb6vsl79qmQ6XuV5YI8-44" value="" style="group" vertex="1" connectable="0" parent="1">
          <mxGeometry x="350" y="750" width="740" height="300" as="geometry" />
        </mxCell>
        <mxCell id="zSb6vsl79qmQ6XuV5YI8-45" value="" style="group" vertex="1" connectable="0" parent="zSb6vsl79qmQ6XuV5YI8-44">
          <mxGeometry x="46.24999999999999" y="-10" width="693.7499999999999" height="270" as="geometry" />
        </mxCell>
        <mxCell id="zSb6vsl79qmQ6XuV5YI8-23" value="" style="rounded=0;whiteSpace=wrap;html=1;" vertex="1" parent="zSb6vsl79qmQ6XuV5YI8-45">
          <mxGeometry width="682.1875" height="270" as="geometry" />
        </mxCell>
        <mxCell id="zSb6vsl79qmQ6XuV5YI8-36" value="ArbolGeneral" style="swimlane;fontStyle=1;align=center;verticalAlign=top;childLayout=stackLayout;horizontal=1;startSize=26;horizontalStack=0;resizeParent=1;resizeParentMax=0;resizeLast=0;collapsible=1;marginBottom=0;whiteSpace=wrap;html=1;" vertex="1" parent="zSb6vsl79qmQ6XuV5YI8-45">
          <mxGeometry x="354.5884722222222" y="60" width="272.875" height="170" as="geometry" />
        </mxCell>
        <mxCell id="zSb6vsl79qmQ6XuV5YI8-37" value="- dato : T&lt;div&gt;- hijos : List&amp;lt;ArbolGeneral&amp;gt;&lt;/div&gt;" style="text;strokeColor=none;fillColor=none;align=left;verticalAlign=top;spacingLeft=4;spacingRight=4;overflow=hidden;rotatable=0;points=[[0,0.5],[1,0.5]];portConstraint=eastwest;whiteSpace=wrap;html=1;" vertex="1" parent="zSb6vsl79qmQ6XuV5YI8-36">
          <mxGeometry y="26" width="272.875" height="34" as="geometry" />
        </mxCell>
        <mxCell id="zSb6vsl79qmQ6XuV5YI8-38" value="" style="line;strokeWidth=1;fillColor=none;align=left;verticalAlign=middle;spacingTop=-1;spacingLeft=3;spacingRight=3;rotatable=0;labelPosition=right;points=[];portConstraint=eastwest;strokeColor=inherit;" vertex="1" parent="zSb6vsl79qmQ6XuV5YI8-36">
          <mxGeometry y="60" width="272.875" height="8" as="geometry" />
        </mxCell>
        <mxCell id="zSb6vsl79qmQ6XuV5YI8-39" value="+ ArbolGeneral(dato : T)&lt;div&gt;+ getDatoRaiz() : T&lt;/div&gt;&lt;div&gt;+ getHijos() : List&amp;lt;ArbolGeneral&amp;gt;&lt;/div&gt;&lt;div&gt;+ agregarHijo(hijo : ArbolGeneral)&lt;/div&gt;&lt;div&gt;+ eliminarHijo(hijo : ArbolGeneral)&lt;/div&gt;&lt;div&gt;+ esHoja() : bool&lt;/div&gt;" style="text;strokeColor=none;fillColor=none;align=left;verticalAlign=top;spacingLeft=4;spacingRight=4;overflow=hidden;rotatable=0;points=[[0,0.5],[1,0.5]];portConstraint=eastwest;whiteSpace=wrap;html=1;" vertex="1" parent="zSb6vsl79qmQ6XuV5YI8-36">
          <mxGeometry y="68" width="272.875" height="102" as="geometry" />
        </mxCell>
        <mxCell id="zSb6vsl79qmQ6XuV5YI8-60" style="edgeStyle=none;curved=1;rounded=0;orthogonalLoop=1;jettySize=auto;html=1;fontSize=12;startSize=8;endSize=8;endArrow=diamond;endFill=0;" edge="1" parent="zSb6vsl79qmQ6XuV5YI8-36" source="zSb6vsl79qmQ6XuV5YI8-36">
          <mxGeometry relative="1" as="geometry">
            <mxPoint x="272.54097222222214" y="119" as="targetPoint" />
            <Array as="points">
              <mxPoint x="313.6520833333333" y="75" />
            </Array>
          </mxGeometry>
        </mxCell>
        <mxCell id="zSb6vsl79qmQ6XuV5YI8-40" value="Cola" style="swimlane;fontStyle=1;align=center;verticalAlign=top;childLayout=stackLayout;horizontal=1;startSize=26;horizontalStack=0;resizeParent=1;resizeParentMax=0;resizeLast=0;collapsible=1;marginBottom=0;whiteSpace=wrap;html=1;" vertex="1" parent="zSb6vsl79qmQ6XuV5YI8-45">
          <mxGeometry x="25.694444444444443" y="90" width="231.24999999999997" height="140" as="geometry" />
        </mxCell>
        <mxCell id="zSb6vsl79qmQ6XuV5YI8-41" value="- dato : List&amp;lt;T&amp;gt;" style="text;strokeColor=none;fillColor=none;align=left;verticalAlign=top;spacingLeft=4;spacingRight=4;overflow=hidden;rotatable=0;points=[[0,0.5],[1,0.5]];portConstraint=eastwest;whiteSpace=wrap;html=1;" vertex="1" parent="zSb6vsl79qmQ6XuV5YI8-40">
          <mxGeometry y="26" width="231.24999999999997" height="34" as="geometry" />
        </mxCell>
        <mxCell id="zSb6vsl79qmQ6XuV5YI8-42" value="" style="line;strokeWidth=1;fillColor=none;align=left;verticalAlign=middle;spacingTop=-1;spacingLeft=3;spacingRight=3;rotatable=0;labelPosition=right;points=[];portConstraint=eastwest;strokeColor=inherit;" vertex="1" parent="zSb6vsl79qmQ6XuV5YI8-40">
          <mxGeometry y="60" width="231.24999999999997" height="8" as="geometry" />
        </mxCell>
        <mxCell id="zSb6vsl79qmQ6XuV5YI8-43" value="+ encolar(elem : T)&lt;div&gt;+ desencolar() : T&lt;/div&gt;&lt;div&gt;+ esVacia() : bool&lt;/div&gt;&lt;div&gt;+ cantidadElementos() : int&lt;/div&gt;" style="text;strokeColor=none;fillColor=none;align=left;verticalAlign=top;spacingLeft=4;spacingRight=4;overflow=hidden;rotatable=0;points=[[0,0.5],[1,0.5]];portConstraint=eastwest;whiteSpace=wrap;html=1;" vertex="1" parent="zSb6vsl79qmQ6XuV5YI8-40">
          <mxGeometry y="68" width="231.24999999999997" height="72" as="geometry" />
        </mxCell>
        <mxCell id="zSb6vsl79qmQ6XuV5YI8-88" value="&lt;b&gt;&lt;font style=&quot;font-size: 25px;&quot;&gt;tp1&lt;/font&gt;&lt;/b&gt;" style="text;html=1;whiteSpace=wrap;strokeColor=none;fillColor=none;align=center;verticalAlign=middle;rounded=0;" vertex="1" parent="zSb6vsl79qmQ6XuV5YI8-45">
          <mxGeometry x="313.74888888888887" y="3" width="102.77777777777777" height="30" as="geometry" />
        </mxCell>
        <mxCell id="zSb6vsl79qmQ6XuV5YI8-94" value="hijos" style="text;html=1;whiteSpace=wrap;strokeColor=none;fillColor=none;align=center;verticalAlign=middle;rounded=0;" vertex="1" parent="zSb6vsl79qmQ6XuV5YI8-45">
          <mxGeometry x="632.0833333333333" y="110" width="61.66666666666666" height="30" as="geometry" />
        </mxCell>
        <mxCell id="zSb6vsl79qmQ6XuV5YI8-79" style="edgeStyle=none;curved=1;rounded=0;orthogonalLoop=1;jettySize=auto;html=1;entryX=0.5;entryY=0;entryDx=0;entryDy=0;fontSize=12;startSize=8;endSize=8;" edge="1" parent="1" source="zSb6vsl79qmQ6XuV5YI8-54" target="zSb6vsl79qmQ6XuV5YI8-40">
          <mxGeometry relative="1" as="geometry" />
        </mxCell>
        <mxCell id="zSb6vsl79qmQ6XuV5YI8-90" style="edgeStyle=none;curved=1;rounded=0;orthogonalLoop=1;jettySize=auto;html=1;entryX=0;entryY=0.5;entryDx=0;entryDy=0;fontSize=12;startSize=8;endSize=8;" edge="1" parent="1" source="zSb6vsl79qmQ6XuV5YI8-54" target="zSb6vsl79qmQ6XuV5YI8-37">
          <mxGeometry relative="1" as="geometry" />
        </mxCell>
        <mxCell id="zSb6vsl79qmQ6XuV5YI8-54" value="Estrategia" style="swimlane;fontStyle=1;align=center;verticalAlign=top;childLayout=stackLayout;horizontal=1;startSize=26;horizontalStack=0;resizeParent=1;resizeParentMax=0;resizeLast=0;collapsible=1;marginBottom=0;whiteSpace=wrap;html=1;" vertex="1" parent="1">
          <mxGeometry x="134" y="225" width="560" height="248" as="geometry" />
        </mxCell>
        <mxCell id="zSb6vsl79qmQ6XuV5YI8-55" value="- CalcularDistancia(str1 : string, str2 : string) : int" style="text;strokeColor=none;fillColor=none;align=left;verticalAlign=top;spacingLeft=4;spacingRight=4;overflow=hidden;rotatable=0;points=[[0,0.5],[1,0.5]];portConstraint=eastwest;whiteSpace=wrap;html=1;" vertex="1" parent="zSb6vsl79qmQ6XuV5YI8-54">
          <mxGeometry y="26" width="560" height="34" as="geometry" />
        </mxCell>
        <mxCell id="zSb6vsl79qmQ6XuV5YI8-56" value="" style="line;strokeWidth=1;fillColor=none;align=left;verticalAlign=middle;spacingTop=-1;spacingLeft=3;spacingRight=3;rotatable=0;labelPosition=right;points=[];portConstraint=eastwest;strokeColor=inherit;" vertex="1" parent="zSb6vsl79qmQ6XuV5YI8-54">
          <mxGeometry y="60" width="560" height="8" as="geometry" />
        </mxCell>
        <mxCell id="zSb6vsl79qmQ6XuV5YI8-48" value="" style="group" vertex="1" connectable="0" parent="zSb6vsl79qmQ6XuV5YI8-54">
          <mxGeometry y="68" width="560" height="180" as="geometry" />
        </mxCell>
        <mxCell id="zSb6vsl79qmQ6XuV5YI8-49" value="+ Consulta1(arbol: ArbolGeneral) : string" style="text;strokeColor=none;fillColor=none;align=left;verticalAlign=middle;spacingLeft=4;spacingRight=4;overflow=hidden;points=[[0,0.5],[1,0.5]];portConstraint=eastwest;rotatable=0;whiteSpace=wrap;html=1;" vertex="1" parent="zSb6vsl79qmQ6XuV5YI8-48">
          <mxGeometry width="550" height="30" as="geometry" />
        </mxCell>
        <mxCell id="zSb6vsl79qmQ6XuV5YI8-50" value="+ Consulta2(arbol: ArbolGeneral) : string" style="text;strokeColor=none;fillColor=none;align=left;verticalAlign=middle;spacingLeft=4;spacingRight=4;overflow=hidden;points=[[0,0.5],[1,0.5]];portConstraint=eastwest;rotatable=0;whiteSpace=wrap;html=1;" vertex="1" parent="zSb6vsl79qmQ6XuV5YI8-48">
          <mxGeometry y="30" width="550" height="30" as="geometry" />
        </mxCell>
        <mxCell id="zSb6vsl79qmQ6XuV5YI8-51" value="+ Consulta3(arbol: ArbolGeneral) : string" style="text;strokeColor=none;fillColor=none;align=left;verticalAlign=middle;spacingLeft=4;spacingRight=4;overflow=hidden;points=[[0,0.5],[1,0.5]];portConstraint=eastwest;rotatable=0;whiteSpace=wrap;html=1;" vertex="1" parent="zSb6vsl79qmQ6XuV5YI8-48">
          <mxGeometry y="60" width="550" height="40" as="geometry" />
        </mxCell>
        <mxCell id="zSb6vsl79qmQ6XuV5YI8-52" value="+ AgregarDato(arbol: ArbolGeneral, dato : DatoDistancia)" style="text;strokeColor=none;fillColor=none;align=left;verticalAlign=middle;spacingLeft=4;spacingRight=4;overflow=hidden;points=[[0,0.5],[1,0.5]];portConstraint=eastwest;rotatable=0;whiteSpace=wrap;html=1;" vertex="1" parent="zSb6vsl79qmQ6XuV5YI8-48">
          <mxGeometry y="100" width="550" height="40" as="geometry" />
        </mxCell>
        <mxCell id="zSb6vsl79qmQ6XuV5YI8-53" value="+ Buscar(arbol: ArbolGeneral, elementoABuscar: string, umbral : int, collected : List &amp;lt;DatoDistancia&amp;gt;)" style="text;strokeColor=none;fillColor=none;align=left;verticalAlign=middle;spacingLeft=4;spacingRight=4;overflow=hidden;points=[[0,0.5],[1,0.5]];portConstraint=eastwest;rotatable=0;whiteSpace=wrap;html=1;" vertex="1" parent="zSb6vsl79qmQ6XuV5YI8-48">
          <mxGeometry y="140" width="550" height="40" as="geometry" />
        </mxCell>
        <mxCell id="zSb6vsl79qmQ6XuV5YI8-77" style="edgeStyle=none;curved=1;rounded=0;orthogonalLoop=1;jettySize=auto;html=1;entryX=-0.002;entryY=1.006;entryDx=0;entryDy=0;entryPerimeter=0;fontSize=12;startSize=8;endSize=8;" edge="1" parent="1" source="zSb6vsl79qmQ6XuV5YI8-54" target="zSb6vsl79qmQ6XuV5YI8-16">
          <mxGeometry relative="1" as="geometry" />
        </mxCell>
        <mxCell id="zSb6vsl79qmQ6XuV5YI8-78" style="edgeStyle=none;curved=1;rounded=0;orthogonalLoop=1;jettySize=auto;html=1;entryX=0.472;entryY=1.1;entryDx=0;entryDy=0;entryPerimeter=0;fontSize=12;startSize=8;endSize=8;" edge="1" parent="1" source="zSb6vsl79qmQ6XuV5YI8-36" target="zSb6vsl79qmQ6XuV5YI8-18">
          <mxGeometry relative="1" as="geometry" />
        </mxCell>
        <mxCell id="zSb6vsl79qmQ6XuV5YI8-86" style="edgeStyle=none;curved=1;rounded=0;orthogonalLoop=1;jettySize=auto;html=1;entryX=1.008;entryY=0.716;entryDx=0;entryDy=0;entryPerimeter=0;fontSize=12;startSize=8;endSize=8;" edge="1" parent="1" source="zSb6vsl79qmQ6XuV5YI8-24" target="zSb6vsl79qmQ6XuV5YI8-16">
          <mxGeometry relative="1" as="geometry" />
        </mxCell>
        <mxCell id="zSb6vsl79qmQ6XuV5YI8-87" value="&lt;b&gt;&lt;font style=&quot;font-size: 25px;&quot;&gt;tpfinal&lt;/font&gt;&lt;/b&gt;" style="text;html=1;whiteSpace=wrap;strokeColor=none;fillColor=none;align=center;verticalAlign=middle;rounded=0;" vertex="1" parent="1">
          <mxGeometry x="740" y="180" width="100" height="30" as="geometry" />
        </mxCell>
        <mxCell id="zSb6vsl79qmQ6XuV5YI8-95" value="usa" style="text;align=center;fontStyle=1;verticalAlign=middle;spacingLeft=3;spacingRight=3;strokeColor=none;rotatable=0;points=[[0,0.5],[1,0.5]];portConstraint=eastwest;html=1;" vertex="1" parent="1">
          <mxGeometry x="670" y="490" width="80" height="26" as="geometry" />
        </mxCell>
        <mxCell id="zSb6vsl79qmQ6XuV5YI8-96" value="usa" style="text;align=center;fontStyle=1;verticalAlign=middle;spacingLeft=3;spacingRight=3;strokeColor=none;rotatable=0;points=[[0,0.5],[1,0.5]];portConstraint=eastwest;html=1;" vertex="1" parent="1">
          <mxGeometry x="600" y="572" width="80" height="26" as="geometry" />
        </mxCell>
        <mxCell id="zSb6vsl79qmQ6XuV5YI8-97" value="usa" style="text;align=center;fontStyle=1;verticalAlign=middle;spacingLeft=3;spacingRight=3;strokeColor=none;rotatable=0;points=[[0,0.5],[1,0.5]];portConstraint=eastwest;html=1;" vertex="1" parent="1">
          <mxGeometry x="490" y="640" width="80" height="26" as="geometry" />
        </mxCell>
        <mxCell id="zSb6vsl79qmQ6XuV5YI8-98" value="contiene" style="text;align=center;fontStyle=1;verticalAlign=middle;spacingLeft=3;spacingRight=3;strokeColor=none;rotatable=0;points=[[0,0.5],[1,0.5]];portConstraint=eastwest;html=1;" vertex="1" parent="1">
          <mxGeometry x="850" y="650" width="80" height="26" as="geometry" />
        </mxCell>
        <mxCell id="zSb6vsl79qmQ6XuV5YI8-99" value="crea" style="text;align=center;fontStyle=1;verticalAlign=middle;spacingLeft=3;spacingRight=3;strokeColor=none;rotatable=0;points=[[0,0.5],[1,0.5]];portConstraint=eastwest;html=1;" vertex="1" parent="1">
          <mxGeometry x="692" y="310" width="80" height="26" as="geometry" />
        </mxCell>
        <mxCell id="zSb6vsl79qmQ6XuV5YI8-100" value="contiene" style="text;align=center;fontStyle=1;verticalAlign=middle;spacingLeft=3;spacingRight=3;strokeColor=none;rotatable=0;points=[[0,0.5],[1,0.5]];portConstraint=eastwest;html=1;" vertex="1" parent="1">
          <mxGeometry x="984" y="473" width="80" height="26" as="geometry" />
        </mxCell>
        <mxCell id="zSb6vsl79qmQ6XuV5YI8-101" style="edgeStyle=none;curved=1;rounded=0;orthogonalLoop=1;jettySize=auto;html=1;entryX=0.986;entryY=0.059;entryDx=0;entryDy=0;entryPerimeter=0;fontSize=12;startSize=8;endSize=8;" edge="1" parent="1" source="zSb6vsl79qmQ6XuV5YI8-24" target="zSb6vsl79qmQ6XuV5YI8-36">
          <mxGeometry relative="1" as="geometry">
            <Array as="points">
              <mxPoint x="1110" y="620" />
            </Array>
          </mxGeometry>
        </mxCell>
        <mxCell id="zSb6vsl79qmQ6XuV5YI8-102" value="usa" style="text;align=center;fontStyle=1;verticalAlign=middle;spacingLeft=3;spacingRight=3;strokeColor=none;rotatable=0;points=[[0,0.5],[1,0.5]];portConstraint=eastwest;html=1;" vertex="1" parent="1">
          <mxGeometry x="1090" y="598" width="80" height="26" as="geometry" />
        </mxCell>
      </root>
    </mxGraphModel>
  </diagram>
</mxfile>
